<?xml version="1.0" standalone="no"?>
<!DOCTYPE svg PUBLIC "-//W3C//DTD SVG 20010904//EN"
 "http://www.w3.org/TR/2001/REC-SVG-20010904/DTD/svg10.dtd">
<svg version="1.0" xmlns="http://www.w3.org/2000/svg"
 width="642.000000pt" height="643.000000pt" viewBox="0 0 642.000000 643.000000"
 preserveAspectRatio="xMidYMid meet">

<g transform="translate(0.000000,643.000000) scale(0.100000,-0.100000)"
fill="#000000" stroke="none">
<path d="M30 3185 l0 -3185 3195 0 3195 0 0 3185 0 3185 -3195 0 -3195 0 0
-3185z m6200 -15 l0 -3000 -3005 0 -3005 0 0 3000 0 3000 3005 0 3005 0 0
-3000z"/>
<path d="M1300 4690 l0 -520 85 0 85 0 2 415 3 416 698 -416 699 -415 84 0 84
0 0 520 0 520 -85 0 -85 0 0 -416 c0 -355 -2 -415 -14 -411 -8 3 -325 191
-704 416 l-691 411 -80 0 -81 0 0 -520z"/>
<path d="M3410 4905 l0 -305 785 0 785 0 0 -130 0 -130 -765 0 -765 0 0 -85 0
-85 855 0 855 0 -2 518 -3 517 -85 0 -85 0 -3 -217 -2 -218 -700 0 -700 0 0
220 0 220 -85 0 -85 0 0 -305z"/>
<path d="M924 3783 c3 -16 40 -239 81 -498 41 -258 77 -480 80 -492 l5 -23
1080 0 c680 0 1080 4 1080 10 0 5 36 232 80 505 44 273 80 502 80 510 0 12
-17 15 -83 15 l-84 0 -38 -237 c-21 -131 -52 -326 -70 -433 l-31 -195 -427 -3
-427 -2 0 435 0 435 -85 0 -85 0 0 -435 0 -435 -425 0 c-234 0 -425 3 -425 7
0 10 -129 816 -135 841 -5 21 -10 22 -91 22 l-86 0 6 -27z"/>
<path d="M3780 3290 l0 -520 85 0 85 0 0 215 0 215 342 0 342 0 361 -215 361
-215 87 0 87 0 0 49 0 49 -275 163 -275 164 275 3 275 2 0 305 0 305 -875 0
-875 0 0 -520z m1578 213 l-3 -128 -700 0 -700 0 -3 128 -3 127 706 0 706 0
-3 -127z"/>
<path d="M2350 1880 l0 -520 875 0 875 0 0 85 0 85 -790 0 -790 0 0 130 0 130
790 0 790 0 0 85 0 85 -787 2 -788 3 -3 127 -3 128 788 2 788 3 3 88 3 87
-876 0 -875 0 0 -520z"/>
</g>
</svg>
